<?xml version="1.0" encoding="UTF-8" standalone="no"?>
<!-- Created with Inkscape (http://www.inkscape.org/) -->

<svg
   xmlns:dc="http://purl.org/dc/elements/1.1/"
   xmlns:cc="http://creativecommons.org/ns#"
   xmlns:rdf="http://www.w3.org/1999/02/22-rdf-syntax-ns#"
   xmlns:svg="http://www.w3.org/2000/svg"
   xmlns="http://www.w3.org/2000/svg"
   xmlns:sodipodi="http://sodipodi.sourceforge.net/DTD/sodipodi-0.dtd"
   xmlns:inkscape="http://www.inkscape.org/namespaces/inkscape"
   width="394.28125"
   height="394.28125"
   id="svg2"
   version="1.1"
   inkscape:version="0.48.4 r9939"
   sodipodi:docname="aperture-2c.svg">
  <defs
     id="defs4" />
  <sodipodi:namedview
     id="base"
     pagecolor="#ffffff"
     bordercolor="#666666"
     borderopacity="1.0"
     inkscape:pageopacity="0.0"
     inkscape:pageshadow="2"
     inkscape:zoom="1.979899"
     inkscape:cx="192.43389"
     inkscape:cy="173.14159"
     inkscape:document-units="px"
     inkscape:current-layer="layer1"
     showgrid="false"
     inkscape:window-width="929"
     inkscape:window-height="1027"
     inkscape:window-x="57"
     inkscape:window-y="24"
     inkscape:window-maximized="0"
     fit-margin-top="0"
     fit-margin-left="0"
     fit-margin-right="0"
     fit-margin-bottom="0" />
  <metadata
     id="metadata7">
    <rdf:RDF>
      <cc:Work
         rdf:about="">
        <dc:format>image/svg+xml</dc:format>
        <dc:type
           rdf:resource="http://purl.org/dc/dcmitype/StillImage" />
        <dc:title></dc:title>
      </cc:Work>
    </rdf:RDF>
  </metadata>
  <g
     inkscape:label="Layer 1"
     inkscape:groupmode="layer"
     id="layer1"
     transform="translate(-141.4375,-269.5)">
    <path
       sodipodi:type="arc"
       style="fill:#cecece;fill-opacity:1;stroke:#000000;stroke-width:20;stroke-linecap:butt;stroke-linejoin:miter;stroke-miterlimit:4;stroke-opacity:1;stroke-dasharray:none;stroke-dashoffset:0"
       id="path2985"
       sodipodi:cx="338.57144"
       sodipodi:cy="466.64789"
       sodipodi:rx="177.14285"
       sodipodi:ry="177.14285"
       d="m 515.71429,466.64789 c 0,97.83329 -79.30955,177.14285 -177.14285,177.14285 -97.83329,0 -177.14285,-79.30956 -177.14285,-177.14285 0,-97.8333 79.30956,-177.14285 177.14285,-177.14285 97.8333,0 177.14285,79.30955 177.14285,177.14285 z" />
    <path
       transform="translate(1.1328125e-6,-2.7832032e-6)"
       sodipodi:type="arc"
       style="fill:#cecece;fill-opacity:1;stroke:#000000;stroke-width:40;stroke-linecap:butt;stroke-linejoin:miter;stroke-miterlimit:4;stroke-opacity:1;stroke-dasharray:none;stroke-dashoffset:0"
       id="path2985-0"
       sodipodi:cx="338.57144"
       sodipodi:cy="466.64789"
       sodipodi:rx="177.14285"
       sodipodi:ry="177.14285"
       d="m 515.71429,466.64789 c 0,97.83329 -79.30955,177.14285 -177.14285,177.14285 -97.83329,0 -177.14285,-79.30956 -177.14285,-177.14285 0,-97.8333 79.30956,-177.14285 177.14285,-177.14285 97.8333,0 177.14285,79.30955 177.14285,177.14285 z" />
    <path
       transform="matrix(0.5,0,0,0.5,169.28572,233.32394)"
       sodipodi:type="arc"
       style="fill:#232323;fill-opacity:1;stroke:#000000;stroke-width:40;stroke-linecap:butt;stroke-linejoin:miter;stroke-miterlimit:4;stroke-opacity:1;stroke-dasharray:none;stroke-dashoffset:0"
       id="path2985-2"
       sodipodi:cx="338.57144"
       sodipodi:cy="466.64789"
       sodipodi:rx="177.14285"
       sodipodi:ry="177.14285"
       d="m 515.71429,466.64789 c 0,97.83329 -79.30955,177.14285 -177.14285,177.14285 -97.83329,0 -177.14285,-79.30956 -177.14285,-177.14285 0,-97.8333 79.30956,-177.14285 177.14285,-177.14285 97.8333,0 177.14285,79.30955 177.14285,177.14285 z" />
    <path
       sodipodi:type="arc"
       style="fill:#ffffff;fill-opacity:1;stroke:none"
       id="path3884"
       sodipodi:cx="197.73737"
       sodipodi:cy="198.05911"
       sodipodi:rx="15.404826"
       sodipodi:ry="15.404826"
       d="m 213.14219,198.05911 a 15.404826,15.404826 0 1 1 -30.80965,0 15.404826,15.404826 0 1 1 30.80965,0 z"
       transform="translate(140.83408,268.58877)" />
  </g>
</svg>
